<svg width="414" height="132" viewBox="0 0 414 132" fill="none" xmlns="http://www.w3.org/2000/svg">
<g clip-path="url(#clip0)">
<rect width="414" height="132" fill="#F0DDD5"/>
<rect x="-1" y="-8" width="426" height="140" fill="#296F6A"/>
<path d="M90.032 78.24C88.336 78.24 86.8 77.872 85.424 77.136C84.064 76.384 82.992 75.352 82.208 74.04C81.44 72.728 81.056 71.248 81.056 69.6C81.056 67.952 81.448 66.472 82.232 65.16C83.016 63.848 84.088 62.824 85.448 62.088C86.824 61.336 88.36 60.96 90.056 60.96C91.432 60.96 92.688 61.2 93.824 61.68C94.96 62.16 95.92 62.856 96.704 63.768L94.688 65.664C93.472 64.352 91.976 63.696 90.2 63.696C89.048 63.696 88.016 63.952 87.104 64.464C86.192 64.96 85.48 65.656 84.968 66.552C84.456 67.448 84.2 68.464 84.2 69.6C84.2 70.736 84.456 71.752 84.968 72.648C85.48 73.544 86.192 74.248 87.104 74.76C88.016 75.256 89.048 75.504 90.2 75.504C91.976 75.504 93.472 74.84 94.688 73.512L96.704 75.432C95.92 76.344 94.952 77.04 93.8 77.52C92.664 78 91.408 78.24 90.032 78.24ZM102.262 67.056C103.126 65.712 104.646 65.04 106.822 65.04V67.896C106.566 67.848 106.334 67.824 106.126 67.824C104.958 67.824 104.046 68.168 103.39 68.856C102.734 69.528 102.406 70.504 102.406 71.784V78H99.4055V65.184H102.262V67.056ZM121.297 71.664C121.297 71.872 121.281 72.168 121.249 72.552H111.193C111.369 73.496 111.825 74.248 112.561 74.808C113.313 75.352 114.241 75.624 115.345 75.624C116.753 75.624 117.913 75.16 118.825 74.232L120.433 76.08C119.857 76.768 119.129 77.288 118.249 77.64C117.369 77.992 116.377 78.168 115.273 78.168C113.865 78.168 112.625 77.888 111.553 77.328C110.481 76.768 109.649 75.992 109.057 75C108.481 73.992 108.193 72.856 108.193 71.592C108.193 70.344 108.473 69.224 109.033 68.232C109.609 67.224 110.401 66.44 111.409 65.88C112.417 65.32 113.553 65.04 114.817 65.04C116.065 65.04 117.177 65.32 118.153 65.88C119.145 66.424 119.913 67.2 120.457 68.208C121.017 69.2 121.297 70.352 121.297 71.664ZM114.817 67.44C113.857 67.44 113.041 67.728 112.369 68.304C111.713 68.864 111.313 69.616 111.169 70.56H118.441C118.313 69.632 117.921 68.88 117.265 68.304C116.609 67.728 115.793 67.44 114.817 67.44ZM128.723 65.04C130.611 65.04 132.051 65.496 133.043 66.408C134.051 67.304 134.555 68.664 134.555 70.488V78H131.723V76.44C131.355 77 130.827 77.432 130.139 77.736C129.467 78.024 128.651 78.168 127.691 78.168C126.731 78.168 125.891 78.008 125.171 77.688C124.451 77.352 123.891 76.896 123.491 76.32C123.107 75.728 122.915 75.064 122.915 74.328C122.915 73.176 123.339 72.256 124.187 71.568C125.051 70.864 126.403 70.512 128.243 70.512H131.555V70.32C131.555 69.424 131.283 68.736 130.739 68.256C130.211 67.776 129.419 67.536 128.363 67.536C127.643 67.536 126.931 67.648 126.227 67.872C125.539 68.096 124.955 68.408 124.475 68.808L123.299 66.624C123.971 66.112 124.779 65.72 125.723 65.448C126.667 65.176 127.667 65.04 128.723 65.04ZM128.315 75.984C129.067 75.984 129.731 75.816 130.307 75.48C130.899 75.128 131.315 74.632 131.555 73.992V72.504H128.459C126.731 72.504 125.867 73.072 125.867 74.208C125.867 74.752 126.083 75.184 126.515 75.504C126.947 75.824 127.547 75.984 128.315 75.984ZM146.11 77.304C145.758 77.592 145.326 77.808 144.814 77.952C144.318 78.096 143.79 78.168 143.23 78.168C141.822 78.168 140.734 77.8 139.965 77.064C139.198 76.328 138.814 75.256 138.814 73.848V67.68H136.702V65.28H138.814V62.352H141.814V65.28H145.246V67.68H141.814V73.776C141.814 74.4 141.966 74.88 142.27 75.216C142.574 75.536 143.014 75.696 143.59 75.696C144.262 75.696 144.822 75.52 145.27 75.168L146.11 77.304ZM160.204 71.664C160.204 71.872 160.188 72.168 160.156 72.552H150.1C150.276 73.496 150.732 74.248 151.468 74.808C152.22 75.352 153.148 75.624 154.252 75.624C155.66 75.624 156.82 75.16 157.732 74.232L159.34 76.08C158.764 76.768 158.036 77.288 157.156 77.64C156.276 77.992 155.284 78.168 154.18 78.168C152.772 78.168 151.532 77.888 150.46 77.328C149.388 76.768 148.556 75.992 147.964 75C147.388 73.992 147.1 72.856 147.1 71.592C147.1 70.344 147.38 69.224 147.94 68.232C148.516 67.224 149.308 66.44 150.316 65.88C151.324 65.32 152.46 65.04 153.724 65.04C154.972 65.04 156.084 65.32 157.06 65.88C158.052 66.424 158.82 67.2 159.364 68.208C159.924 69.2 160.204 70.352 160.204 71.664ZM153.724 67.44C152.764 67.44 151.948 67.728 151.276 68.304C150.62 68.864 150.22 69.616 150.076 70.56H157.348C157.22 69.632 156.828 68.88 156.172 68.304C155.516 67.728 154.7 67.44 153.724 67.44ZM174.614 65.04C176.502 65.04 177.942 65.496 178.934 66.408C179.942 67.304 180.446 68.664 180.446 70.488V78H177.614V76.44C177.246 77 176.718 77.432 176.03 77.736C175.358 78.024 174.542 78.168 173.582 78.168C172.622 78.168 171.782 78.008 171.062 77.688C170.342 77.352 169.782 76.896 169.382 76.32C168.998 75.728 168.806 75.064 168.806 74.328C168.806 73.176 169.23 72.256 170.078 71.568C170.942 70.864 172.294 70.512 174.134 70.512H177.446V70.32C177.446 69.424 177.174 68.736 176.63 68.256C176.102 67.776 175.31 67.536 174.254 67.536C173.534 67.536 172.822 67.648 172.118 67.872C171.43 68.096 170.846 68.408 170.366 68.808L169.19 66.624C169.862 66.112 170.67 65.72 171.614 65.448C172.558 65.176 173.558 65.04 174.614 65.04ZM174.206 75.984C174.958 75.984 175.622 75.816 176.198 75.48C176.79 75.128 177.206 74.632 177.446 73.992V72.504H174.35C172.622 72.504 171.758 73.072 171.758 74.208C171.758 74.752 171.974 75.184 172.406 75.504C172.838 75.824 173.438 75.984 174.206 75.984ZM198.993 78.24C197.297 78.24 195.761 77.872 194.385 77.136C193.025 76.384 191.953 75.352 191.169 74.04C190.401 72.728 190.017 71.248 190.017 69.6C190.017 67.952 190.409 66.472 191.193 65.16C191.977 63.848 193.049 62.824 194.409 62.088C195.785 61.336 197.321 60.96 199.017 60.96C200.393 60.96 201.649 61.2 202.785 61.68C203.921 62.16 204.881 62.856 205.665 63.768L203.649 65.664C202.433 64.352 200.937 63.696 199.161 63.696C198.009 63.696 196.977 63.952 196.065 64.464C195.153 64.96 194.441 65.656 193.929 66.552C193.417 67.448 193.161 68.464 193.161 69.6C193.161 70.736 193.417 71.752 193.929 72.648C194.441 73.544 195.153 74.248 196.065 74.76C196.977 75.256 198.009 75.504 199.161 75.504C200.937 75.504 202.433 74.84 203.649 73.512L205.665 75.432C204.881 76.344 203.913 77.04 202.761 77.52C201.625 78 200.369 78.24 198.993 78.24ZM213.658 78.168C212.362 78.168 211.194 77.888 210.154 77.328C209.114 76.768 208.298 75.992 207.706 75C207.13 73.992 206.842 72.856 206.842 71.592C206.842 70.328 207.13 69.2 207.706 68.208C208.298 67.216 209.114 66.44 210.154 65.88C211.194 65.32 212.362 65.04 213.658 65.04C214.97 65.04 216.146 65.32 217.186 65.88C218.226 66.44 219.034 67.216 219.61 68.208C220.202 69.2 220.498 70.328 220.498 71.592C220.498 72.856 220.202 73.992 219.61 75C219.034 75.992 218.226 76.768 217.186 77.328C216.146 77.888 214.97 78.168 213.658 78.168ZM213.658 75.6C214.762 75.6 215.674 75.232 216.394 74.496C217.114 73.76 217.474 72.792 217.474 71.592C217.474 70.392 217.114 69.424 216.394 68.688C215.674 67.952 214.762 67.584 213.658 67.584C212.554 67.584 211.642 67.952 210.922 68.688C210.218 69.424 209.866 70.392 209.866 71.592C209.866 72.792 210.218 73.76 210.922 74.496C211.642 75.232 212.554 75.6 213.658 75.6ZM239.542 65.04C241.158 65.04 242.438 65.512 243.382 66.456C244.326 67.384 244.798 68.784 244.798 70.656V78H241.798V71.04C241.798 69.92 241.55 69.08 241.054 68.52C240.558 67.944 239.846 67.656 238.918 67.656C237.91 67.656 237.102 67.992 236.494 68.664C235.886 69.32 235.582 70.264 235.582 71.496V78H232.582V71.04C232.582 69.92 232.334 69.08 231.838 68.52C231.342 67.944 230.63 67.656 229.702 67.656C228.678 67.656 227.862 67.984 227.254 68.64C226.662 69.296 226.366 70.248 226.366 71.496V78H223.366V65.184H226.222V66.816C226.702 66.24 227.302 65.8 228.022 65.496C228.742 65.192 229.542 65.04 230.422 65.04C231.382 65.04 232.23 65.224 232.966 65.592C233.718 65.944 234.31 66.472 234.742 67.176C235.27 66.504 235.95 65.984 236.782 65.616C237.614 65.232 238.534 65.04 239.542 65.04ZM264.808 65.04C266.424 65.04 267.704 65.512 268.648 66.456C269.592 67.384 270.064 68.784 270.064 70.656V78H267.064V71.04C267.064 69.92 266.816 69.08 266.32 68.52C265.824 67.944 265.112 67.656 264.184 67.656C263.176 67.656 262.368 67.992 261.76 68.664C261.152 69.32 260.848 70.264 260.848 71.496V78H257.848V71.04C257.848 69.92 257.6 69.08 257.104 68.52C256.608 67.944 255.896 67.656 254.968 67.656C253.944 67.656 253.128 67.984 252.52 68.64C251.928 69.296 251.632 70.248 251.632 71.496V78H248.632V65.184H251.488V66.816C251.968 66.24 252.568 65.8 253.288 65.496C254.008 65.192 254.808 65.04 255.688 65.04C256.648 65.04 257.496 65.224 258.232 65.592C258.984 65.944 259.576 66.472 260.008 67.176C260.536 66.504 261.216 65.984 262.048 65.616C262.88 65.232 263.8 65.04 264.808 65.04ZM273.898 65.184H276.898V78H273.898V65.184ZM275.41 63.072C274.866 63.072 274.41 62.904 274.042 62.568C273.674 62.216 273.49 61.784 273.49 61.272C273.49 60.76 273.674 60.336 274.042 60C274.41 59.648 274.866 59.472 275.41 59.472C275.954 59.472 276.41 59.64 276.778 59.976C277.146 60.296 277.33 60.704 277.33 61.2C277.33 61.728 277.146 62.176 276.778 62.544C276.426 62.896 275.97 63.072 275.41 63.072ZM288.539 77.304C288.187 77.592 287.755 77.808 287.243 77.952C286.747 78.096 286.219 78.168 285.659 78.168C284.251 78.168 283.163 77.8 282.395 77.064C281.627 76.328 281.243 75.256 281.243 73.848V67.68H279.131V65.28H281.243V62.352H284.243V65.28H287.675V67.68H284.243V73.776C284.243 74.4 284.395 74.88 284.699 75.216C285.003 75.536 285.443 75.696 286.019 75.696C286.691 75.696 287.251 75.52 287.699 75.168L288.539 77.304ZM298.406 77.304C298.054 77.592 297.622 77.808 297.11 77.952C296.614 78.096 296.086 78.168 295.526 78.168C294.118 78.168 293.03 77.8 292.262 77.064C291.494 76.328 291.11 75.256 291.11 73.848V67.68H288.998V65.28H291.11V62.352H294.11V65.28H297.542V67.68H294.11V73.776C294.11 74.4 294.262 74.88 294.566 75.216C294.87 75.536 295.31 75.696 295.886 75.696C296.558 75.696 297.118 75.52 297.566 75.168L298.406 77.304ZM312.5 71.664C312.5 71.872 312.484 72.168 312.452 72.552H302.396C302.572 73.496 303.028 74.248 303.764 74.808C304.516 75.352 305.444 75.624 306.548 75.624C307.956 75.624 309.116 75.16 310.028 74.232L311.636 76.08C311.06 76.768 310.332 77.288 309.452 77.64C308.572 77.992 307.58 78.168 306.476 78.168C305.068 78.168 303.828 77.888 302.756 77.328C301.684 76.768 300.852 75.992 300.26 75C299.684 73.992 299.396 72.856 299.396 71.592C299.396 70.344 299.676 69.224 300.236 68.232C300.812 67.224 301.604 66.44 302.612 65.88C303.62 65.32 304.756 65.04 306.02 65.04C307.268 65.04 308.38 65.32 309.356 65.88C310.348 66.424 311.116 67.2 311.66 68.208C312.22 69.2 312.5 70.352 312.5 71.664ZM306.02 67.44C305.06 67.44 304.244 67.728 303.572 68.304C302.916 68.864 302.516 69.616 302.372 70.56H309.644C309.516 69.632 309.124 68.88 308.468 68.304C307.812 67.728 306.996 67.44 306.02 67.44ZM327.43 71.664C327.43 71.872 327.414 72.168 327.382 72.552H317.326C317.502 73.496 317.958 74.248 318.694 74.808C319.446 75.352 320.374 75.624 321.478 75.624C322.886 75.624 324.046 75.16 324.958 74.232L326.566 76.08C325.99 76.768 325.262 77.288 324.382 77.64C323.502 77.992 322.51 78.168 321.406 78.168C319.998 78.168 318.758 77.888 317.686 77.328C316.614 76.768 315.782 75.992 315.19 75C314.614 73.992 314.326 72.856 314.326 71.592C314.326 70.344 314.606 69.224 315.166 68.232C315.742 67.224 316.534 66.44 317.542 65.88C318.55 65.32 319.686 65.04 320.95 65.04C322.198 65.04 323.31 65.32 324.286 65.88C325.278 66.424 326.046 67.2 326.59 68.208C327.15 69.2 327.43 70.352 327.43 71.664ZM320.95 67.44C319.99 67.44 319.174 67.728 318.502 68.304C317.846 68.864 317.446 69.616 317.302 70.56H324.574C324.446 69.632 324.054 68.88 323.398 68.304C322.742 67.728 321.926 67.44 320.95 67.44Z" fill="#F0DDD5"/>
<path d="M23.1856 9.95165C25.8823 9.00556 28.6724 11.1108 28.5028 13.9635L26.8435 41.872C26.654 45.0593 22.9902 46.7508 20.4413 44.8277L-4.28056 26.1749C-6.82939 24.2517 -6.2085 20.2644 -3.1956 19.2073L23.1856 9.95165Z" fill="#3A9B8F"/>
<path d="M150.954 25.9264C153.696 27.3989 153.78 31.3012 151.103 32.89L130.201 45.2981C127.568 46.8615 124.226 45.0063 124.16 41.9444L123.647 18.0367C123.581 14.9748 126.84 12.9779 129.539 14.4268L150.954 25.9264Z" fill="#3A9B8F"/>
<path d="M29.5932 93.6118C32.5453 94.0352 34.0126 97.4239 32.3014 99.8664L13.7317 126.373C11.9368 128.935 8.02798 128.538 6.78499 125.667L-6.68158 94.5666C-7.92457 91.696 -5.53965 88.5737 -2.44311 89.0177L29.5932 93.6118Z" fill="#3A9B8F"/>
<path d="M415.304 56.9707C418.256 57.3941 419.723 60.7828 418.012 63.2253L409.413 75.4997C407.618 78.0617 403.709 77.6646 402.466 74.794L396.23 60.3923C394.987 57.5216 397.372 54.3993 400.469 54.8434L415.304 56.9707Z" fill="#3A9B8F"/>
<path d="M335.393 87.0823C338.282 86.0167 341.241 88.4784 340.719 91.5132L335.728 120.531C335.206 123.565 331.595 124.897 329.228 122.928L306.594 104.099C304.227 102.129 304.879 98.336 307.768 97.2706L335.393 87.0823Z" fill="#3A9B8F"/>
<path d="M167.947 99.1446C170.999 99.5482 172.47 103.105 170.594 105.547L158.225 121.646C156.349 124.088 152.533 123.583 151.357 120.738L143.599 101.977C142.422 99.132 144.767 96.0798 147.82 96.4834L167.947 99.1446Z" fill="#3A9B8F"/>
<path d="M260.382 5.37887C262.464 3.11007 266.221 3.94603 267.145 6.88357L280.319 48.7838C281.243 51.7211 278.64 54.5568 275.635 53.8881L232.763 44.3495C229.757 43.6808 228.602 40.0092 230.684 37.7405L260.382 5.37887Z" fill="#3A9B8F"/>
</g>
<defs>
<clipPath id="clip0">
<rect width="414" height="132" fill="white"/>
</clipPath>
</defs>
</svg>
