<svg width="555" height="991" viewBox="0 0 555 991" fill="none" xmlns="http://www.w3.org/2000/svg">
<g clip-path="url(#clip0)">
<rect width="555" height="991" fill="#F0DDD5"/>
<rect x="1" y="-1" width="554" height="992" fill="#1D5F74"/>
<path d="M59.752 408.64C55.2293 408.64 51.1333 407.659 47.464 405.696C43.8373 403.691 40.9787 400.939 38.888 397.44C36.84 393.941 35.816 389.995 35.816 385.6C35.816 381.205 36.8613 377.259 38.952 373.76C41.0427 370.261 43.9013 367.531 47.528 365.568C51.1973 363.563 55.2933 362.56 59.816 362.56C63.4853 362.56 66.8347 363.2 69.864 364.48C72.8933 365.76 75.4533 367.616 77.544 370.048L72.168 375.104C68.9253 371.605 64.936 369.856 60.2 369.856C57.128 369.856 54.376 370.539 51.944 371.904C49.512 373.227 47.6133 375.083 46.248 377.472C44.8827 379.861 44.2 382.571 44.2 385.6C44.2 388.629 44.8827 391.339 46.248 393.728C47.6133 396.117 49.512 397.995 51.944 399.36C54.376 400.683 57.128 401.344 60.2 401.344C64.936 401.344 68.9253 399.573 72.168 396.032L77.544 401.152C75.4533 403.584 72.872 405.44 69.8 406.72C66.7707 408 63.4213 408.64 59.752 408.64ZM92.364 378.816C94.668 375.232 98.7213 373.44 104.524 373.44V381.056C103.841 380.928 103.223 380.864 102.668 380.864C99.5533 380.864 97.1213 381.781 95.372 383.616C93.6227 385.408 92.748 388.011 92.748 391.424V408H84.748V373.824H92.364V378.816ZM143.126 391.104C143.126 391.659 143.083 392.448 142.998 393.472H116.182C116.651 395.989 117.867 397.995 119.83 399.488C121.835 400.939 124.31 401.664 127.254 401.664C131.009 401.664 134.102 400.427 136.534 397.952L140.822 402.88C139.286 404.715 137.345 406.101 134.998 407.04C132.651 407.979 130.006 408.448 127.062 408.448C123.307 408.448 120.001 407.701 117.142 406.208C114.283 404.715 112.065 402.645 110.486 400C108.95 397.312 108.182 394.283 108.182 390.912C108.182 387.584 108.929 384.597 110.422 381.952C111.958 379.264 114.07 377.173 116.758 375.68C119.446 374.187 122.475 373.44 125.846 373.44C129.174 373.44 132.139 374.187 134.742 375.68C137.387 377.131 139.435 379.2 140.886 381.888C142.379 384.533 143.126 387.605 143.126 391.104ZM125.846 379.84C123.286 379.84 121.11 380.608 119.318 382.144C117.569 383.637 116.502 385.643 116.118 388.16H135.51C135.169 385.685 134.123 383.68 132.374 382.144C130.625 380.608 128.449 379.84 125.846 379.84ZM162.929 373.44C167.964 373.44 171.804 374.656 174.449 377.088C177.137 379.477 178.481 383.104 178.481 387.968V408H170.929V403.84C169.948 405.333 168.54 406.485 166.705 407.296C164.913 408.064 162.737 408.448 160.177 408.448C157.617 408.448 155.377 408.021 153.457 407.168C151.537 406.272 150.044 405.056 148.977 403.52C147.953 401.941 147.441 400.171 147.441 398.208C147.441 395.136 148.572 392.683 150.833 390.848C153.137 388.971 156.742 388.032 161.649 388.032H170.481V387.52C170.481 385.131 169.756 383.296 168.305 382.016C166.897 380.736 164.785 380.096 161.969 380.096C160.049 380.096 158.15 380.395 156.273 380.992C154.438 381.589 152.881 382.421 151.601 383.488L148.465 377.664C150.257 376.299 152.412 375.253 154.929 374.528C157.446 373.803 160.113 373.44 162.929 373.44ZM161.841 402.624C163.846 402.624 165.617 402.176 167.153 401.28C168.732 400.341 169.841 399.019 170.481 397.312V393.344H162.225C157.617 393.344 155.313 394.859 155.313 397.888C155.313 399.339 155.889 400.491 157.041 401.344C158.193 402.197 159.793 402.624 161.841 402.624ZM209.292 406.144C208.353 406.912 207.201 407.488 205.836 407.872C204.513 408.256 203.105 408.448 201.612 408.448C197.857 408.448 194.956 407.467 192.908 405.504C190.86 403.541 189.836 400.683 189.836 396.928V380.48H184.204V374.08H189.836V366.272H197.836V374.08H206.988V380.48H197.836V396.736C197.836 398.4 198.241 399.68 199.052 400.576C199.863 401.429 201.036 401.856 202.572 401.856C204.364 401.856 205.857 401.387 207.052 400.448L209.292 406.144ZM246.876 391.104C246.876 391.659 246.833 392.448 246.748 393.472H219.932C220.401 395.989 221.617 397.995 223.58 399.488C225.585 400.939 228.06 401.664 231.004 401.664C234.759 401.664 237.852 400.427 240.284 397.952L244.572 402.88C243.036 404.715 241.095 406.101 238.748 407.04C236.401 407.979 233.756 408.448 230.812 408.448C227.057 408.448 223.751 407.701 220.892 406.208C218.033 404.715 215.815 402.645 214.236 400C212.7 397.312 211.932 394.283 211.932 390.912C211.932 387.584 212.679 384.597 214.172 381.952C215.708 379.264 217.82 377.173 220.508 375.68C223.196 374.187 226.225 373.44 229.596 373.44C232.924 373.44 235.889 374.187 238.492 375.68C241.137 377.131 243.185 379.2 244.636 381.888C246.129 384.533 246.876 387.605 246.876 391.104ZM229.596 379.84C227.036 379.84 224.86 380.608 223.068 382.144C221.319 383.637 220.252 385.643 219.868 388.16H239.26C238.919 385.685 237.873 383.68 236.124 382.144C234.375 380.608 232.199 379.84 229.596 379.84ZM68.328 486L59.176 472.88C58.792 472.923 58.216 472.944 57.448 472.944H47.336V486H39.016V441.2H57.448C61.3307 441.2 64.7013 441.84 67.56 443.12C70.4613 444.4 72.68 446.235 74.216 448.624C75.752 451.013 76.52 453.851 76.52 457.136C76.52 460.507 75.688 463.408 74.024 465.84C72.4027 468.272 70.056 470.085 66.984 471.28L77.288 486H68.328ZM68.136 457.136C68.136 454.277 67.1973 452.08 65.32 450.544C63.4427 449.008 60.6907 448.24 57.064 448.24H47.336V466.096H57.064C60.6907 466.096 63.4427 465.328 65.32 463.792C67.1973 462.213 68.136 459.995 68.136 457.136ZM117.189 469.104C117.189 469.659 117.146 470.448 117.061 471.472H90.2445C90.7138 473.989 91.9298 475.995 93.8925 477.488C95.8978 478.939 98.3725 479.664 101.317 479.664C105.071 479.664 108.165 478.427 110.597 475.952L114.885 480.88C113.349 482.715 111.407 484.101 109.061 485.04C106.714 485.979 104.069 486.448 101.125 486.448C97.3698 486.448 94.0632 485.701 91.2045 484.208C88.3458 482.715 86.1272 480.645 84.5485 478C83.0125 475.312 82.2445 472.283 82.2445 468.912C82.2445 465.584 82.9912 462.597 84.4845 459.952C86.0205 457.264 88.1325 455.173 90.8205 453.68C93.5085 452.187 96.5378 451.44 99.9085 451.44C103.237 451.44 106.202 452.187 108.805 453.68C111.45 455.131 113.498 457.2 114.949 459.888C116.442 462.533 117.189 465.605 117.189 469.104ZM99.9085 457.84C97.3485 457.84 95.1725 458.608 93.3805 460.144C91.6312 461.637 90.5645 463.643 90.1805 466.16H109.573C109.231 463.685 108.186 461.68 106.437 460.144C104.687 458.608 102.511 457.84 99.9085 457.84ZM158.793 451.824V480.816C158.793 492.848 152.649 498.864 140.361 498.864C137.076 498.864 133.961 498.437 131.017 497.584C128.073 496.773 125.641 495.579 123.721 494L127.305 487.984C128.798 489.221 130.676 490.203 132.937 490.928C135.241 491.696 137.566 492.08 139.913 492.08C143.668 492.08 146.42 491.227 148.169 489.52C149.918 487.813 150.793 485.211 150.793 481.712V479.92C149.428 481.413 147.764 482.544 145.801 483.312C143.838 484.08 141.684 484.464 139.337 484.464C136.094 484.464 133.15 483.781 130.505 482.416C127.902 481.008 125.833 479.045 124.297 476.528C122.804 474.011 122.057 471.131 122.057 467.888C122.057 464.645 122.804 461.787 124.297 459.312C125.833 456.795 127.902 454.853 130.505 453.488C133.15 452.123 136.094 451.44 139.337 451.44C141.812 451.44 144.052 451.845 146.057 452.656C148.105 453.467 149.812 454.704 151.177 456.368V451.824H158.793ZM140.553 477.68C143.582 477.68 146.057 476.784 147.977 474.992C149.94 473.157 150.921 470.789 150.921 467.888C150.921 465.029 149.94 462.704 147.977 460.912C146.057 459.12 143.582 458.224 140.553 458.224C137.481 458.224 134.964 459.12 133.001 460.912C131.081 462.704 130.121 465.029 130.121 467.888C130.121 470.789 131.081 473.157 133.001 474.992C134.964 476.784 137.481 477.68 140.553 477.68ZM169.311 451.824H177.311V486H169.311V451.824ZM173.343 446.192C171.892 446.192 170.676 445.744 169.695 444.848C168.713 443.909 168.223 442.757 168.223 441.392C168.223 440.027 168.713 438.896 169.695 438C170.676 437.061 171.892 436.592 173.343 436.592C174.793 436.592 176.009 437.04 176.991 437.936C177.972 438.789 178.463 439.877 178.463 441.2C178.463 442.608 177.972 443.803 176.991 444.784C176.052 445.723 174.836 446.192 173.343 446.192ZM198.371 486.448C195.597 486.448 192.888 486.085 190.243 485.36C187.597 484.635 185.485 483.717 183.907 482.608L186.979 476.528C188.515 477.552 190.349 478.384 192.483 479.024C194.659 479.621 196.792 479.92 198.883 479.92C203.661 479.92 206.051 478.661 206.051 476.144C206.051 474.949 205.432 474.117 204.195 473.648C203 473.179 201.059 472.731 198.371 472.304C195.555 471.877 193.251 471.387 191.459 470.832C189.709 470.277 188.173 469.317 186.851 467.952C185.571 466.544 184.931 464.603 184.931 462.128C184.931 458.885 186.275 456.304 188.963 454.384C191.693 452.421 195.363 451.44 199.971 451.44C202.317 451.44 204.664 451.717 207.011 452.272C209.357 452.784 211.277 453.488 212.771 454.384L209.699 460.464C206.797 458.757 203.533 457.904 199.907 457.904C197.56 457.904 195.768 458.267 194.531 458.992C193.336 459.675 192.739 460.592 192.739 461.744C192.739 463.024 193.379 463.941 194.659 464.496C195.981 465.008 198.008 465.499 200.739 465.968C203.469 466.395 205.709 466.885 207.459 467.44C209.208 467.995 210.701 468.933 211.939 470.256C213.219 471.579 213.859 473.456 213.859 475.888C213.859 479.088 212.472 481.648 209.699 483.568C206.925 485.488 203.149 486.448 198.371 486.448ZM241.292 484.144C240.353 484.912 239.201 485.488 237.836 485.872C236.513 486.256 235.105 486.448 233.612 486.448C229.857 486.448 226.956 485.467 224.908 483.504C222.86 481.541 221.836 478.683 221.836 474.928V458.48H216.204V452.08H221.836V444.272H229.836V452.08H238.988V458.48H229.836V474.736C229.836 476.4 230.241 477.68 231.052 478.576C231.863 479.429 233.036 479.856 234.572 479.856C236.364 479.856 237.857 479.387 239.052 478.448L241.292 484.144ZM255.489 456.816C257.793 453.232 261.846 451.44 267.649 451.44V459.056C266.966 458.928 266.348 458.864 265.793 458.864C262.678 458.864 260.246 459.781 258.497 461.616C256.748 463.408 255.873 466.011 255.873 469.424V486H247.873V451.824H255.489V456.816ZM287.304 451.44C292.339 451.44 296.179 452.656 298.824 455.088C301.512 457.477 302.856 461.104 302.856 465.968V486H295.304V481.84C294.323 483.333 292.915 484.485 291.08 485.296C289.288 486.064 287.112 486.448 284.552 486.448C281.992 486.448 279.752 486.021 277.832 485.168C275.912 484.272 274.419 483.056 273.352 481.52C272.328 479.941 271.816 478.171 271.816 476.208C271.816 473.136 272.947 470.683 275.208 468.848C277.512 466.971 281.117 466.032 286.024 466.032H294.856V465.52C294.856 463.131 294.131 461.296 292.68 460.016C291.272 458.736 289.16 458.096 286.344 458.096C284.424 458.096 282.525 458.395 280.648 458.992C278.813 459.589 277.256 460.421 275.976 461.488L272.84 455.664C274.632 454.299 276.787 453.253 279.304 452.528C281.821 451.803 284.488 451.44 287.304 451.44ZM286.216 480.624C288.221 480.624 289.992 480.176 291.528 479.28C293.107 478.341 294.216 477.019 294.856 475.312V471.344H286.6C281.992 471.344 279.688 472.859 279.688 475.888C279.688 477.339 280.264 478.491 281.416 479.344C282.568 480.197 284.168 480.624 286.216 480.624ZM333.667 484.144C332.728 484.912 331.576 485.488 330.211 485.872C328.888 486.256 327.48 486.448 325.987 486.448C322.232 486.448 319.331 485.467 317.283 483.504C315.235 481.541 314.211 478.683 314.211 474.928V458.48H308.579V452.08H314.211V444.272H322.211V452.08H331.363V458.48H322.211V474.736C322.211 476.4 322.616 477.68 323.427 478.576C324.238 479.429 325.411 479.856 326.947 479.856C328.739 479.856 330.232 479.387 331.427 478.448L333.667 484.144ZM340.248 451.824H348.248V486H340.248V451.824ZM344.28 446.192C342.829 446.192 341.613 445.744 340.632 444.848C339.651 443.909 339.16 442.757 339.16 441.392C339.16 440.027 339.651 438.896 340.632 438C341.613 437.061 342.829 436.592 344.28 436.592C345.731 436.592 346.947 437.04 347.928 437.936C348.909 438.789 349.4 439.877 349.4 441.2C349.4 442.608 348.909 443.803 347.928 444.784C346.989 445.723 345.773 446.192 344.28 446.192ZM374.108 486.448C370.652 486.448 367.537 485.701 364.764 484.208C361.991 482.715 359.815 480.645 358.236 478C356.7 475.312 355.932 472.283 355.932 468.912C355.932 465.541 356.7 462.533 358.236 459.888C359.815 457.243 361.991 455.173 364.764 453.68C367.537 452.187 370.652 451.44 374.108 451.44C377.607 451.44 380.743 452.187 383.516 453.68C386.289 455.173 388.444 457.243 389.98 459.888C391.559 462.533 392.348 465.541 392.348 468.912C392.348 472.283 391.559 475.312 389.98 478C388.444 480.645 386.289 482.715 383.516 484.208C380.743 485.701 377.607 486.448 374.108 486.448ZM374.108 479.6C377.052 479.6 379.484 478.619 381.404 476.656C383.324 474.693 384.284 472.112 384.284 468.912C384.284 465.712 383.324 463.131 381.404 461.168C379.484 459.205 377.052 458.224 374.108 458.224C371.164 458.224 368.732 459.205 366.812 461.168C364.935 463.131 363.996 465.712 363.996 468.912C363.996 472.112 364.935 474.693 366.812 476.656C368.732 478.619 371.164 479.6 374.108 479.6ZM419.39 451.44C423.699 451.44 427.155 452.699 429.758 455.216C432.361 457.733 433.662 461.467 433.662 466.416V486H425.662V467.44C425.662 464.453 424.958 462.213 423.55 460.72C422.142 459.184 420.137 458.416 417.534 458.416C414.59 458.416 412.265 459.312 410.558 461.104C408.851 462.853 407.998 465.392 407.998 468.72V486H399.998V451.824H407.614V456.24C408.937 454.661 410.601 453.467 412.606 452.656C414.611 451.845 416.873 451.44 419.39 451.44ZM47.336 526.176V539.808H68.968V546.848H47.336V564H39.016V519.2H71.72V526.176H47.336ZM93.4205 564.448C89.9645 564.448 86.8498 563.701 84.0765 562.208C81.3032 560.715 79.1272 558.645 77.5485 556C76.0125 553.312 75.2445 550.283 75.2445 546.912C75.2445 543.541 76.0125 540.533 77.5485 537.888C79.1272 535.243 81.3032 533.173 84.0765 531.68C86.8498 530.187 89.9645 529.44 93.4205 529.44C96.9192 529.44 100.055 530.187 102.829 531.68C105.602 533.173 107.757 535.243 109.293 537.888C110.871 540.533 111.661 543.541 111.661 546.912C111.661 550.283 110.871 553.312 109.293 556C107.757 558.645 105.602 560.715 102.829 562.208C100.055 563.701 96.9192 564.448 93.4205 564.448ZM93.4205 557.6C96.3645 557.6 98.7965 556.619 100.717 554.656C102.637 552.693 103.597 550.112 103.597 546.912C103.597 543.712 102.637 541.131 100.717 539.168C98.7965 537.205 96.3645 536.224 93.4205 536.224C90.4765 536.224 88.0445 537.205 86.1245 539.168C84.2472 541.131 83.3085 543.712 83.3085 546.912C83.3085 550.112 84.2472 552.693 86.1245 554.656C88.0445 556.619 90.4765 557.6 93.4205 557.6ZM126.927 534.816C129.231 531.232 133.284 529.44 139.087 529.44V537.056C138.404 536.928 137.785 536.864 137.231 536.864C134.116 536.864 131.684 537.781 129.935 539.616C128.185 541.408 127.311 544.011 127.311 547.424V564H119.311V529.824H126.927V534.816ZM189.009 529.44C193.318 529.44 196.732 530.699 199.249 533.216C201.766 535.691 203.025 539.424 203.025 544.416V564H195.025V545.44C195.025 542.453 194.364 540.213 193.041 538.72C191.718 537.184 189.82 536.416 187.345 536.416C184.657 536.416 182.502 537.312 180.881 539.104C179.26 540.853 178.449 543.371 178.449 546.656V564H170.449V545.44C170.449 542.453 169.788 540.213 168.465 538.72C167.142 537.184 165.244 536.416 162.769 536.416C160.038 536.416 157.862 537.291 156.241 539.04C154.662 540.789 153.873 543.328 153.873 546.656V564H145.873V529.824H153.489V534.176C154.769 532.64 156.369 531.467 158.289 530.656C160.209 529.845 162.342 529.44 164.689 529.44C167.249 529.44 169.51 529.931 171.473 530.912C173.478 531.851 175.057 533.259 176.209 535.136C177.617 533.344 179.43 531.957 181.649 530.976C183.868 529.952 186.321 529.44 189.009 529.44Z" fill="white"/>
<rect x="16.224" y="812" width="142" height="143.844" transform="rotate(47.0133 16.224 812)" fill="#07325A"/>
<rect x="434.224" y="-35" width="142" height="143.844" transform="rotate(47.0133 434.224 -35)" fill="#07325A"/>
<rect x="92" y="252.005" width="110" height="110" transform="rotate(-50.6038 92 252.005)" fill="#07325A"/>
<rect x="401.378" y="676" width="173.584" height="175.838" transform="rotate(61.3966 401.378 676)" fill="#07325A"/>
<rect x="450.012" y="555.177" width="64.6536" height="69.8726" transform="rotate(129.216 450.012 555.177)" fill="#07325A"/>
</g>
<defs>
<clipPath id="clip0">
<rect width="555" height="991" fill="white"/>
</clipPath>
</defs>
</svg>
