<svg width="554" height="991" viewBox="0 0 554 991" fill="none" xmlns="http://www.w3.org/2000/svg">
<g clip-path="url(#clip0)">
<rect width="554" height="991" fill="#FAF2EF"/>
<g filter="url(#filter0_d)">
<rect width="554" height="992" fill="#E79981"/>
</g>
<path d="M117.28 342V398H106.88V374H77.92V398H67.52V342H77.92V365.12H106.88V342H117.28ZM150.526 398.56C146.206 398.56 142.312 397.627 138.846 395.76C135.379 393.893 132.659 391.307 130.686 388C128.766 384.64 127.806 380.853 127.806 376.64C127.806 372.427 128.766 368.667 130.686 365.36C132.659 362.053 135.379 359.467 138.846 357.6C142.312 355.733 146.206 354.8 150.526 354.8C154.899 354.8 158.819 355.733 162.286 357.6C165.752 359.467 168.446 362.053 170.366 365.36C172.339 368.667 173.326 372.427 173.326 376.64C173.326 380.853 172.339 384.64 170.366 388C168.446 391.307 165.752 393.893 162.286 395.76C158.819 397.627 154.899 398.56 150.526 398.56ZM150.526 390C154.206 390 157.246 388.773 159.646 386.32C162.046 383.867 163.246 380.64 163.246 376.64C163.246 372.64 162.046 369.413 159.646 366.96C157.246 364.507 154.206 363.28 150.526 363.28C146.846 363.28 143.806 364.507 141.406 366.96C139.059 369.413 137.886 372.64 137.886 376.64C137.886 380.64 139.059 383.867 141.406 386.32C143.806 388.773 146.846 390 150.526 390ZM196.088 398.56C192.621 398.56 189.235 398.107 185.928 397.2C182.621 396.293 179.981 395.147 178.008 393.76L181.848 386.16C183.768 387.44 186.061 388.48 188.728 389.28C191.448 390.027 194.115 390.4 196.728 390.4C202.701 390.4 205.688 388.827 205.688 385.68C205.688 384.187 204.915 383.147 203.368 382.56C201.875 381.973 199.448 381.413 196.088 380.88C192.568 380.347 189.688 379.733 187.448 379.04C185.261 378.347 183.341 377.147 181.688 375.44C180.088 373.68 179.288 371.253 179.288 368.16C179.288 364.107 180.968 360.88 184.328 358.48C187.741 356.027 192.328 354.8 198.088 354.8C201.021 354.8 203.955 355.147 206.888 355.84C209.821 356.48 212.221 357.36 214.088 358.48L210.248 366.08C206.621 363.947 202.541 362.88 198.008 362.88C195.075 362.88 192.835 363.333 191.288 364.24C189.795 365.093 189.048 366.24 189.048 367.68C189.048 369.28 189.848 370.427 191.448 371.12C193.101 371.76 195.635 372.373 199.048 372.96C202.461 373.493 205.261 374.107 207.448 374.8C209.635 375.493 211.501 376.667 213.048 378.32C214.648 379.973 215.448 382.32 215.448 385.36C215.448 389.36 213.715 392.56 210.248 394.96C206.781 397.36 202.061 398.56 196.088 398.56ZM249.74 395.68C248.567 396.64 247.127 397.36 245.42 397.84C243.767 398.32 242.007 398.56 240.14 398.56C235.447 398.56 231.82 397.333 229.26 394.88C226.7 392.427 225.42 388.853 225.42 384.16V363.6H218.38V355.6H225.42V345.84H235.42V355.6H246.86V363.6H235.42V383.92C235.42 386 235.927 387.6 236.94 388.72C237.953 389.787 239.42 390.32 241.34 390.32C243.58 390.32 245.447 389.733 246.94 388.56L249.74 395.68ZM82.88 452.8C89.1733 452.8 93.9733 454.32 97.28 457.36C100.64 460.347 102.32 464.88 102.32 470.96V496H92.88V490.8C91.6533 492.667 89.8933 494.107 87.6 495.12C85.36 496.08 82.64 496.56 79.44 496.56C76.24 496.56 73.44 496.027 71.04 494.96C68.64 493.84 66.7733 492.32 65.44 490.4C64.16 488.427 63.52 486.213 63.52 483.76C63.52 479.92 64.9333 476.853 67.76 474.56C70.64 472.213 75.1467 471.04 81.28 471.04H92.32V470.4C92.32 467.413 91.4133 465.12 89.6 463.52C87.84 461.92 85.2 461.12 81.68 461.12C79.28 461.12 76.9067 461.493 74.56 462.24C72.2667 462.987 70.32 464.027 68.72 465.36L64.8 458.08C67.04 456.373 69.7333 455.067 72.88 454.16C76.0267 453.253 79.36 452.8 82.88 452.8ZM81.52 489.28C84.0267 489.28 86.24 488.72 88.16 487.6C90.1333 486.427 91.52 484.773 92.32 482.64V477.68H82C76.24 477.68 73.36 479.573 73.36 483.36C73.36 485.173 74.08 486.613 75.52 487.68C76.96 488.747 78.96 489.28 81.52 489.28ZM139.394 452.8C144.78 452.8 149.1 454.373 152.354 457.52C155.607 460.667 157.234 465.333 157.234 471.52V496H147.234V472.8C147.234 469.067 146.354 466.267 144.594 464.4C142.834 462.48 140.327 461.52 137.074 461.52C133.394 461.52 130.487 462.64 128.354 464.88C126.22 467.067 125.154 470.24 125.154 474.4V496H115.154V453.28H124.674V458.8C126.327 456.827 128.407 455.333 130.914 454.32C133.42 453.307 136.247 452.8 139.394 452.8ZM106.72 572.88C106.72 573.573 106.667 574.56 106.56 575.84H73.04C73.6267 578.987 75.1467 581.493 77.6 583.36C80.1067 585.173 83.2 586.08 86.88 586.08C91.5733 586.08 95.44 584.533 98.48 581.44L103.84 587.6C101.92 589.893 99.4933 591.627 96.56 592.8C93.6267 593.973 90.32 594.56 86.64 594.56C81.9467 594.56 77.8133 593.627 74.24 591.76C70.6667 589.893 67.8933 587.307 65.92 584C64 580.64 63.04 576.853 63.04 572.64C63.04 568.48 63.9733 564.747 65.84 561.44C67.76 558.08 70.4 555.467 73.76 553.6C77.12 551.733 80.9067 550.8 85.12 550.8C89.28 550.8 92.9867 551.733 96.24 553.6C99.5467 555.413 102.107 558 103.92 561.36C105.787 564.667 106.72 568.507 106.72 572.88ZM85.12 558.8C81.92 558.8 79.2 559.76 76.96 561.68C74.7733 563.547 73.44 566.053 72.96 569.2H97.2C96.7733 566.107 95.4667 563.6 93.28 561.68C91.0933 559.76 88.3733 558.8 85.12 558.8ZM155.544 551.28L137.224 594H126.904L108.584 551.28H118.984L132.264 582.96L145.944 551.28H155.544ZM200.783 572.88C200.783 573.573 200.729 574.56 200.623 575.84H167.103C167.689 578.987 169.209 581.493 171.663 583.36C174.169 585.173 177.263 586.08 180.943 586.08C185.636 586.08 189.503 584.533 192.543 581.44L197.903 587.6C195.983 589.893 193.556 591.627 190.623 592.8C187.689 593.973 184.383 594.56 180.703 594.56C176.009 594.56 171.876 593.627 168.303 591.76C164.729 589.893 161.956 587.307 159.983 584C158.063 580.64 157.103 576.853 157.103 572.64C157.103 568.48 158.036 564.747 159.903 561.44C161.823 558.08 164.463 555.467 167.823 553.6C171.183 551.733 174.969 550.8 179.183 550.8C183.343 550.8 187.049 551.733 190.303 553.6C193.609 555.413 196.169 558 197.983 561.36C199.849 564.667 200.783 568.507 200.783 572.88ZM179.183 558.8C175.983 558.8 173.263 559.76 171.023 561.68C168.836 563.547 167.503 566.053 167.023 569.2H191.263C190.836 566.107 189.529 563.6 187.343 561.68C185.156 559.76 182.436 558.8 179.183 558.8ZM234.628 550.8C240.015 550.8 244.335 552.373 247.588 555.52C250.841 558.667 252.468 563.333 252.468 569.52V594H242.468V570.8C242.468 567.067 241.588 564.267 239.828 562.4C238.068 560.48 235.561 559.52 232.308 559.52C228.628 559.52 225.721 560.64 223.588 562.88C221.455 565.067 220.388 568.24 220.388 572.4V594H210.388V551.28H219.908V556.8C221.561 554.827 223.641 553.333 226.148 552.32C228.655 551.307 231.481 550.8 234.628 550.8ZM290.834 591.68C289.66 592.64 288.22 593.36 286.514 593.84C284.86 594.32 283.1 594.56 281.234 594.56C276.54 594.56 272.914 593.333 270.354 590.88C267.794 588.427 266.514 584.853 266.514 580.16V559.6H259.474V551.6H266.514V541.84H276.514V551.6H287.954V559.6H276.514V579.92C276.514 582 277.02 583.6 278.034 584.72C279.047 585.787 280.514 586.32 282.434 586.32C284.674 586.32 286.54 585.733 288.034 584.56L290.834 591.68Z" fill="#FAF2EF"/>
<circle cx="6" cy="713" r="60" fill="#D36363"/>
<circle cx="445" cy="182" r="60" fill="#CC5656"/>
<circle cx="255" cy="19" r="60" fill="#CC5656"/>
<circle cx="356" cy="470" r="41" fill="#CC5656"/>
<circle cx="278.5" cy="289.5" r="30.5" fill="#CC5656"/>
<circle cx="494" cy="734" r="97" fill="#CC5656"/>
<circle cx="193.5" cy="957.5" r="103.5" fill="#CC5656"/>
<circle cx="0.5" cy="182.5" r="80.5" fill="#CC5656"/>
</g>
<defs>
<filter id="filter0_d" x="-19" y="-17" width="594" height="1032" filterUnits="userSpaceOnUse" color-interpolation-filters="sRGB">
<feFlood flood-opacity="0" result="BackgroundImageFix"/>
<feColorMatrix in="SourceAlpha" type="matrix" values="0 0 0 0 0 0 0 0 0 0 0 0 0 0 0 0 0 0 127 0"/>
<feOffset dx="1" dy="3"/>
<feGaussianBlur stdDeviation="10"/>
<feColorMatrix type="matrix" values="0 0 0 0 0 0 0 0 0 0 0 0 0 0 0 0 0 0 0.25 0"/>
<feBlend mode="normal" in2="BackgroundImageFix" result="effect1_dropShadow"/>
<feBlend mode="normal" in="SourceGraphic" in2="effect1_dropShadow" result="shape"/>
</filter>
<clipPath id="clip0">
<rect width="554" height="991" fill="white"/>
</clipPath>
</defs>
</svg>
