<svg width="414" height="133" viewBox="0 0 414 133" fill="none" xmlns="http://www.w3.org/2000/svg">
<g clip-path="url(#clip0)">
<rect width="414" height="133" fill="#FAF2EF"/>
<rect x="-5" width="419" height="133" fill="#E79981"/>
<path d="M135.184 62.2V79H132.064V71.8H123.376V79H120.256V62.2H123.376V69.136H132.064V62.2H135.184ZM145.158 79.168C143.862 79.168 142.694 78.888 141.654 78.328C140.614 77.768 139.798 76.992 139.206 76C138.63 74.992 138.342 73.856 138.342 72.592C138.342 71.328 138.63 70.2 139.206 69.208C139.798 68.216 140.614 67.44 141.654 66.88C142.694 66.32 143.862 66.04 145.158 66.04C146.47 66.04 147.646 66.32 148.686 66.88C149.726 67.44 150.534 68.216 151.11 69.208C151.702 70.2 151.998 71.328 151.998 72.592C151.998 73.856 151.702 74.992 151.11 76C150.534 76.992 149.726 77.768 148.686 78.328C147.646 78.888 146.47 79.168 145.158 79.168ZM145.158 76.6C146.262 76.6 147.174 76.232 147.894 75.496C148.614 74.76 148.974 73.792 148.974 72.592C148.974 71.392 148.614 70.424 147.894 69.688C147.174 68.952 146.262 68.584 145.158 68.584C144.054 68.584 143.142 68.952 142.422 69.688C141.718 70.424 141.366 71.392 141.366 72.592C141.366 73.792 141.718 74.76 142.422 75.496C143.142 76.232 144.054 76.6 145.158 76.6ZM154.866 61.192H157.866V79H154.866V61.192ZM174.356 61.192V79H171.476V77.344C170.98 77.952 170.364 78.408 169.628 78.712C168.908 79.016 168.108 79.168 167.228 79.168C165.996 79.168 164.884 78.896 163.892 78.352C162.916 77.808 162.148 77.04 161.588 76.048C161.028 75.04 160.748 73.888 160.748 72.592C160.748 71.296 161.028 70.152 161.588 69.16C162.148 68.168 162.916 67.4 163.892 66.856C164.884 66.312 165.996 66.04 167.228 66.04C168.076 66.04 168.852 66.184 169.556 66.472C170.26 66.76 170.86 67.192 171.356 67.768V61.192H174.356ZM167.588 76.6C168.308 76.6 168.956 76.44 169.532 76.12C170.108 75.784 170.564 75.312 170.9 74.704C171.236 74.096 171.404 73.392 171.404 72.592C171.404 71.792 171.236 71.088 170.9 70.48C170.564 69.872 170.108 69.408 169.532 69.088C168.956 68.752 168.308 68.584 167.588 68.584C166.868 68.584 166.22 68.752 165.644 69.088C165.068 69.408 164.612 69.872 164.276 70.48C163.94 71.088 163.772 71.792 163.772 72.592C163.772 73.392 163.94 74.096 164.276 74.704C164.612 75.312 165.068 75.784 165.644 76.12C166.22 76.44 166.868 76.6 167.588 76.6ZM196.097 75.112H187.697L186.041 79H182.825L190.385 62.2H193.457L201.041 79H197.777L196.097 75.112ZM195.065 72.664L191.897 65.32L188.753 72.664H195.065ZM210.162 66.04C211.778 66.04 213.074 66.512 214.05 67.456C215.026 68.4 215.514 69.8 215.514 71.656V79H212.514V72.04C212.514 70.92 212.25 70.08 211.722 69.52C211.194 68.944 210.442 68.656 209.466 68.656C208.362 68.656 207.49 68.992 206.85 69.664C206.21 70.32 205.89 71.272 205.89 72.52V79H202.89V66.184H205.746V67.84C206.242 67.248 206.866 66.8 207.618 66.496C208.37 66.192 209.218 66.04 210.162 66.04ZM238.84 76.384V79H226.24V62.2H238.504V64.816H229.36V69.184H237.472V71.752H229.36V76.384H238.84ZM253.866 66.184L248.37 79H245.274L239.778 66.184H242.898L246.882 75.688L250.986 66.184H253.866ZM267.438 72.664C267.438 72.872 267.422 73.168 267.39 73.552H257.334C257.51 74.496 257.966 75.248 258.702 75.808C259.454 76.352 260.382 76.624 261.486 76.624C262.894 76.624 264.054 76.16 264.966 75.232L266.574 77.08C265.998 77.768 265.27 78.288 264.39 78.64C263.51 78.992 262.518 79.168 261.414 79.168C260.006 79.168 258.766 78.888 257.694 78.328C256.622 77.768 255.79 76.992 255.198 76C254.622 74.992 254.334 73.856 254.334 72.592C254.334 71.344 254.614 70.224 255.174 69.232C255.75 68.224 256.542 67.44 257.55 66.88C258.558 66.32 259.694 66.04 260.958 66.04C262.206 66.04 263.318 66.32 264.294 66.88C265.286 67.424 266.054 68.2 266.598 69.208C267.158 70.2 267.438 71.352 267.438 72.664ZM260.958 68.44C259.998 68.44 259.182 68.728 258.51 69.304C257.854 69.864 257.454 70.616 257.31 71.56H264.582C264.454 70.632 264.062 69.88 263.406 69.304C262.75 68.728 261.934 68.44 260.958 68.44ZM277.592 66.04C279.208 66.04 280.504 66.512 281.48 67.456C282.456 68.4 282.944 69.8 282.944 71.656V79H279.944V72.04C279.944 70.92 279.68 70.08 279.152 69.52C278.624 68.944 277.872 68.656 276.896 68.656C275.792 68.656 274.92 68.992 274.28 69.664C273.64 70.32 273.32 71.272 273.32 72.52V79H270.32V66.184H273.176V67.84C273.672 67.248 274.296 66.8 275.048 66.496C275.8 66.192 276.648 66.04 277.592 66.04ZM294.453 78.304C294.101 78.592 293.669 78.808 293.157 78.952C292.661 79.096 292.133 79.168 291.573 79.168C290.165 79.168 289.077 78.8 288.309 78.064C287.541 77.328 287.157 76.256 287.157 74.848V68.68H285.045V66.28H287.157V63.352H290.157V66.28H293.589V68.68H290.157V74.776C290.157 75.4 290.309 75.88 290.613 76.216C290.917 76.536 291.357 76.696 291.933 76.696C292.605 76.696 293.165 76.52 293.613 76.168L294.453 78.304Z" fill="#FAF2EF"/>
<circle cx="68" cy="58" r="16" fill="#CC5656"/>
<circle cx="176.5" cy="28.5" r="22.5" fill="#CC5656"/>
<circle cx="295.5" cy="110.5" r="22.5" fill="#CC5656"/>
<circle cx="267" cy="42" r="12" fill="#CC5656"/>
<circle cx="414.5" cy="110.5" r="22.5" fill="#CC5656"/>
<circle cx="352" cy="51" r="17" fill="#CC5656"/>
<circle cx="7" cy="116" r="17" fill="#CC5656"/>
<circle cx="126" cy="114" r="12" fill="#CC5656"/>
</g>
<defs>
<clipPath id="clip0">
<rect width="414" height="133" fill="white"/>
</clipPath>
</defs>
</svg>
