<svg width="414" height="131" viewBox="0 0 414 131" fill="none" xmlns="http://www.w3.org/2000/svg">
<g clip-path="url(#clip0)">
<rect width="414" height="131" fill="#F0DDD5"/>
<rect width="414" height="131" fill="#1D5F74"/>
<path d="M77.248 77L73.816 72.08C73.672 72.096 73.456 72.104 73.168 72.104H69.376V77H66.256V60.2H73.168C74.624 60.2 75.888 60.44 76.96 60.92C78.048 61.4 78.88 62.088 79.456 62.984C80.032 63.88 80.32 64.944 80.32 66.176C80.32 67.44 80.008 68.528 79.384 69.44C78.776 70.352 77.896 71.032 76.744 71.48L80.608 77H77.248ZM77.176 66.176C77.176 65.104 76.824 64.28 76.12 63.704C75.416 63.128 74.384 62.84 73.024 62.84H69.376V69.536H73.024C74.384 69.536 75.416 69.248 76.12 68.672C76.824 68.08 77.176 67.248 77.176 66.176ZM95.5707 70.664C95.5707 70.872 95.5547 71.168 95.5227 71.552H85.4667C85.6427 72.496 86.0987 73.248 86.8347 73.808C87.5867 74.352 88.5147 74.624 89.6187 74.624C91.0267 74.624 92.1867 74.16 93.0987 73.232L94.7067 75.08C94.1307 75.768 93.4027 76.288 92.5227 76.64C91.6427 76.992 90.6507 77.168 89.5467 77.168C88.1387 77.168 86.8987 76.888 85.8267 76.328C84.7547 75.768 83.9227 74.992 83.3307 74C82.7547 72.992 82.4667 71.856 82.4667 70.592C82.4667 69.344 82.7467 68.224 83.3067 67.232C83.8827 66.224 84.6747 65.44 85.6827 64.88C86.6907 64.32 87.8267 64.04 89.0907 64.04C90.3387 64.04 91.4507 64.32 92.4267 64.88C93.4187 65.424 94.1867 66.2 94.7307 67.208C95.2907 68.2 95.5707 69.352 95.5707 70.664ZM89.0907 66.44C88.1307 66.44 87.3147 66.728 86.6427 67.304C85.9867 67.864 85.5867 68.616 85.4427 69.56H92.7147C92.5867 68.632 92.1947 67.88 91.5387 67.304C90.8827 66.728 90.0667 66.44 89.0907 66.44ZM111.172 64.184V75.056C111.172 79.568 108.868 81.824 104.26 81.824C103.028 81.824 101.86 81.664 100.756 81.344C99.6524 81.04 98.7404 80.592 98.0204 80L99.3644 77.744C99.9244 78.208 100.628 78.576 101.476 78.848C102.34 79.136 103.212 79.28 104.092 79.28C105.5 79.28 106.532 78.96 107.188 78.32C107.844 77.68 108.172 76.704 108.172 75.392V74.72C107.66 75.28 107.036 75.704 106.3 75.992C105.564 76.28 104.756 76.424 103.876 76.424C102.66 76.424 101.556 76.168 100.564 75.656C99.5884 75.128 98.8124 74.392 98.2364 73.448C97.6764 72.504 97.3964 71.424 97.3964 70.208C97.3964 68.992 97.6764 67.92 98.2364 66.992C98.8124 66.048 99.5884 65.32 100.564 64.808C101.556 64.296 102.66 64.04 103.876 64.04C104.804 64.04 105.644 64.192 106.396 64.496C107.164 64.8 107.804 65.264 108.316 65.888V64.184H111.172ZM104.332 73.88C105.468 73.88 106.396 73.544 107.116 72.872C107.852 72.184 108.22 71.296 108.22 70.208C108.22 69.136 107.852 68.264 107.116 67.592C106.396 66.92 105.468 66.584 104.332 66.584C103.18 66.584 102.236 66.92 101.5 67.592C100.78 68.264 100.42 69.136 100.42 70.208C100.42 71.296 100.78 72.184 101.5 72.872C102.236 73.544 103.18 73.88 104.332 73.88ZM115.116 64.184H118.116V77H115.116V64.184ZM116.628 62.072C116.084 62.072 115.628 61.904 115.26 61.568C114.892 61.216 114.708 60.784 114.708 60.272C114.708 59.76 114.892 59.336 115.26 59C115.628 58.648 116.084 58.472 116.628 58.472C117.172 58.472 117.628 58.64 117.996 58.976C118.364 59.296 118.548 59.704 118.548 60.2C118.548 60.728 118.364 61.176 117.996 61.544C117.644 61.896 117.188 62.072 116.628 62.072ZM126.014 77.168C124.974 77.168 123.958 77.032 122.966 76.76C121.974 76.488 121.182 76.144 120.59 75.728L121.742 73.448C122.318 73.832 123.006 74.144 123.806 74.384C124.622 74.608 125.422 74.72 126.206 74.72C127.998 74.72 128.894 74.248 128.894 73.304C128.894 72.856 128.662 72.544 128.198 72.368C127.75 72.192 127.022 72.024 126.014 71.864C124.958 71.704 124.094 71.52 123.422 71.312C122.766 71.104 122.19 70.744 121.694 70.232C121.214 69.704 120.974 68.976 120.974 68.048C120.974 66.832 121.478 65.864 122.486 65.144C123.51 64.408 124.886 64.04 126.614 64.04C127.494 64.04 128.374 64.144 129.254 64.352C130.134 64.544 130.854 64.808 131.414 65.144L130.262 67.424C129.174 66.784 127.95 66.464 126.59 66.464C125.71 66.464 125.038 66.6 124.574 66.872C124.126 67.128 123.902 67.472 123.902 67.904C123.902 68.384 124.142 68.728 124.622 68.936C125.118 69.128 125.878 69.312 126.902 69.488C127.926 69.648 128.766 69.832 129.422 70.04C130.078 70.248 130.638 70.6 131.102 71.096C131.582 71.592 131.822 72.296 131.822 73.208C131.822 74.408 131.302 75.368 130.262 76.088C129.222 76.808 127.806 77.168 126.014 77.168ZM142.11 76.304C141.758 76.592 141.326 76.808 140.814 76.952C140.318 77.096 139.79 77.168 139.23 77.168C137.822 77.168 136.734 76.8 135.965 76.064C135.198 75.328 134.814 74.256 134.814 72.848V66.68H132.702V64.28H134.814V61.352H137.814V64.28H141.246V66.68H137.814V72.776C137.814 73.4 137.966 73.88 138.27 74.216C138.574 74.536 139.014 74.696 139.59 74.696C140.262 74.696 140.822 74.52 141.27 74.168L142.11 76.304ZM156.204 70.664C156.204 70.872 156.188 71.168 156.156 71.552H146.1C146.276 72.496 146.732 73.248 147.468 73.808C148.22 74.352 149.148 74.624 150.252 74.624C151.66 74.624 152.82 74.16 153.732 73.232L155.34 75.08C154.764 75.768 154.036 76.288 153.156 76.64C152.276 76.992 151.284 77.168 150.18 77.168C148.772 77.168 147.532 76.888 146.46 76.328C145.388 75.768 144.556 74.992 143.964 74C143.388 72.992 143.1 71.856 143.1 70.592C143.1 69.344 143.38 68.224 143.94 67.232C144.516 66.224 145.308 65.44 146.316 64.88C147.324 64.32 148.46 64.04 149.724 64.04C150.972 64.04 152.084 64.32 153.06 64.88C154.052 65.424 154.82 66.2 155.364 67.208C155.924 68.2 156.204 69.352 156.204 70.664ZM149.724 66.44C148.764 66.44 147.948 66.728 147.276 67.304C146.62 67.864 146.22 68.616 146.076 69.56H153.348C153.22 68.632 152.828 67.88 152.172 67.304C151.516 66.728 150.7 66.44 149.724 66.44ZM161.941 66.056C162.805 64.712 164.325 64.04 166.501 64.04V66.896C166.245 66.848 166.013 66.824 165.805 66.824C164.637 66.824 163.725 67.168 163.069 67.856C162.413 68.528 162.085 69.504 162.085 70.784V77H159.085V64.184H161.941V66.056ZM179.204 62.816V67.928H187.316V70.568H179.204V77H176.084V60.2H188.348V62.816H179.204ZM196.486 77.168C195.19 77.168 194.022 76.888 192.982 76.328C191.942 75.768 191.126 74.992 190.534 74C189.958 72.992 189.67 71.856 189.67 70.592C189.67 69.328 189.958 68.2 190.534 67.208C191.126 66.216 191.942 65.44 192.982 64.88C194.022 64.32 195.19 64.04 196.486 64.04C197.798 64.04 198.974 64.32 200.014 64.88C201.054 65.44 201.862 66.216 202.438 67.208C203.03 68.2 203.326 69.328 203.326 70.592C203.326 71.856 203.03 72.992 202.438 74C201.862 74.992 201.054 75.768 200.014 76.328C198.974 76.888 197.798 77.168 196.486 77.168ZM196.486 74.6C197.59 74.6 198.502 74.232 199.222 73.496C199.942 72.76 200.302 71.792 200.302 70.592C200.302 69.392 199.942 68.424 199.222 67.688C198.502 66.952 197.59 66.584 196.486 66.584C195.382 66.584 194.47 66.952 193.75 67.688C193.046 68.424 192.694 69.392 192.694 70.592C192.694 71.792 193.046 72.76 193.75 73.496C194.47 74.232 195.382 74.6 196.486 74.6ZM209.051 66.056C209.915 64.712 211.435 64.04 213.611 64.04V66.896C213.355 66.848 213.123 66.824 212.915 66.824C211.747 66.824 210.835 67.168 210.179 67.856C209.523 68.528 209.195 69.504 209.195 70.784V77H206.195V64.184H209.051V66.056ZM226.602 62.84H221.034V60.2H235.29V62.84H229.722V77H226.602V62.84ZM244.615 64.04C246.231 64.04 247.527 64.512 248.503 65.456C249.479 66.4 249.967 67.8 249.967 69.656V77H246.967V70.04C246.967 68.92 246.703 68.08 246.175 67.52C245.647 66.944 244.895 66.656 243.919 66.656C242.815 66.656 241.943 66.992 241.303 67.664C240.663 68.32 240.343 69.272 240.343 70.52V77H237.343V59.192H240.343V65.672C240.839 65.144 241.447 64.744 242.167 64.472C242.903 64.184 243.719 64.04 244.615 64.04ZM265.938 70.664C265.938 70.872 265.922 71.168 265.89 71.552H255.834C256.01 72.496 256.466 73.248 257.202 73.808C257.954 74.352 258.882 74.624 259.986 74.624C261.394 74.624 262.554 74.16 263.466 73.232L265.074 75.08C264.498 75.768 263.77 76.288 262.89 76.64C262.01 76.992 261.018 77.168 259.914 77.168C258.506 77.168 257.266 76.888 256.194 76.328C255.122 75.768 254.29 74.992 253.698 74C253.122 72.992 252.834 71.856 252.834 70.592C252.834 69.344 253.114 68.224 253.674 67.232C254.25 66.224 255.042 65.44 256.05 64.88C257.058 64.32 258.194 64.04 259.458 64.04C260.706 64.04 261.818 64.32 262.794 64.88C263.786 65.424 264.554 66.2 265.098 67.208C265.658 68.2 265.938 69.352 265.938 70.664ZM259.458 66.44C258.498 66.44 257.682 66.728 257.01 67.304C256.354 67.864 255.954 68.616 255.81 69.56H263.082C262.954 68.632 262.562 67.88 261.906 67.304C261.25 66.728 260.434 66.44 259.458 66.44ZM288.34 74.384V77H275.74V60.2H288.004V62.816H278.86V67.184H286.972V69.752H278.86V74.384H288.34ZM303.366 64.184L297.87 77H294.774L289.278 64.184H292.398L296.382 73.688L300.486 64.184H303.366ZM316.938 70.664C316.938 70.872 316.922 71.168 316.89 71.552H306.834C307.01 72.496 307.466 73.248 308.202 73.808C308.954 74.352 309.882 74.624 310.986 74.624C312.394 74.624 313.554 74.16 314.466 73.232L316.074 75.08C315.498 75.768 314.77 76.288 313.89 76.64C313.01 76.992 312.018 77.168 310.914 77.168C309.506 77.168 308.266 76.888 307.194 76.328C306.122 75.768 305.29 74.992 304.698 74C304.122 72.992 303.834 71.856 303.834 70.592C303.834 69.344 304.114 68.224 304.674 67.232C305.25 66.224 306.042 65.44 307.05 64.88C308.058 64.32 309.194 64.04 310.458 64.04C311.706 64.04 312.818 64.32 313.794 64.88C314.786 65.424 315.554 66.2 316.098 67.208C316.658 68.2 316.938 69.352 316.938 70.664ZM310.458 66.44C309.498 66.44 308.682 66.728 308.01 67.304C307.354 67.864 306.954 68.616 306.81 69.56H314.082C313.954 68.632 313.562 67.88 312.906 67.304C312.25 66.728 311.434 66.44 310.458 66.44ZM327.092 64.04C328.708 64.04 330.004 64.512 330.98 65.456C331.956 66.4 332.444 67.8 332.444 69.656V77H329.444V70.04C329.444 68.92 329.18 68.08 328.652 67.52C328.124 66.944 327.372 66.656 326.396 66.656C325.292 66.656 324.42 66.992 323.78 67.664C323.14 68.32 322.82 69.272 322.82 70.52V77H319.82V64.184H322.676V65.84C323.172 65.248 323.796 64.8 324.548 64.496C325.3 64.192 326.148 64.04 327.092 64.04ZM343.953 76.304C343.601 76.592 343.169 76.808 342.657 76.952C342.161 77.096 341.633 77.168 341.073 77.168C339.665 77.168 338.577 76.8 337.809 76.064C337.041 75.328 336.657 74.256 336.657 72.848V66.68H334.545V64.28H336.657V61.352H339.657V64.28H343.089V66.68H339.657V72.776C339.657 73.4 339.809 73.88 340.113 74.216C340.417 74.536 340.857 74.696 341.433 74.696C342.105 74.696 342.665 74.52 343.113 74.168L343.953 76.304Z" fill="#F0DDD5"/>
<rect x="128" y="22.6447" width="45.5308" height="41.9512" rx="6" transform="rotate(-28.3845 128 22.6447)" fill="#07325A"/>
<rect x="385" y="53.737" width="31" height="31" rx="6" transform="rotate(-28.3845 385 53.737)" fill="#07325A"/>
<rect x="134.706" y="115.748" width="25.2388" height="30.6696" rx="6" transform="rotate(-65.8699 134.706 115.748)" fill="#07325A"/>
<rect x="317.126" y="111.845" width="22.7762" height="32.6421" rx="6" transform="rotate(-66.2329 317.126 111.845)" fill="#07325A"/>
<rect x="234" y="32.6477" width="26.4836" height="27.2538" rx="6" transform="rotate(-44.7588 234 32.6477)" fill="#07325A"/>
<rect x="-14" y="72.4574" width="38.826" height="41.7383" rx="6" transform="rotate(-28.3845 -14 72.4574)" fill="#07325A"/>
</g>
<defs>
<clipPath id="clip0">
<rect width="414" height="131" fill="white"/>
</clipPath>
</defs>
</svg>
