<svg width="555" height="991" viewBox="0 0 555 991" fill="none" xmlns="http://www.w3.org/2000/svg">
<g clip-path="url(#clip0)">
<rect width="555" height="991" fill="#F0DDD5"/>
<rect x="1" y="-1" width="554" height="992" fill="#1D5F74"/>
<path d="M93.744 439L83.448 424.24C83.016 424.288 82.368 424.312 81.504 424.312H70.128V439H60.768V388.6H81.504C85.872 388.6 89.664 389.32 92.88 390.76C96.144 392.2 98.64 394.264 100.368 396.952C102.096 399.64 102.96 402.832 102.96 406.528C102.96 410.32 102.024 413.584 100.152 416.32C98.328 419.056 95.688 421.096 92.232 422.44L103.824 439H93.744ZM93.528 406.528C93.528 403.312 92.472 400.84 90.36 399.112C88.248 397.384 85.152 396.52 81.072 396.52H70.128V416.608H81.072C85.152 416.608 88.248 415.744 90.36 414.016C92.472 412.24 93.528 409.744 93.528 406.528ZM148.712 419.992C148.712 420.616 148.664 421.504 148.568 422.656H118.4C118.928 425.488 120.296 427.744 122.504 429.424C124.76 431.056 127.544 431.872 130.856 431.872C135.08 431.872 138.56 430.48 141.296 427.696L146.12 433.24C144.392 435.304 142.208 436.864 139.568 437.92C136.928 438.976 133.952 439.504 130.64 439.504C126.416 439.504 122.696 438.664 119.48 436.984C116.264 435.304 113.768 432.976 111.992 430C110.264 426.976 109.4 423.568 109.4 419.776C109.4 416.032 110.24 412.672 111.92 409.696C113.648 406.672 116.024 404.32 119.048 402.64C122.072 400.96 125.48 400.12 129.272 400.12C133.016 400.12 136.352 400.96 139.28 402.64C142.256 404.272 144.56 406.6 146.192 409.624C147.872 412.6 148.712 416.056 148.712 419.992ZM129.272 407.32C126.392 407.32 123.944 408.184 121.928 409.912C119.96 411.592 118.76 413.848 118.328 416.68H140.144C139.76 413.896 138.584 411.64 136.616 409.912C134.648 408.184 132.2 407.32 129.272 407.32ZM195.517 400.552V433.168C195.517 446.704 188.605 453.472 174.781 453.472C171.085 453.472 167.581 452.992 164.269 452.032C160.957 451.12 158.221 449.776 156.061 448L160.093 441.232C161.773 442.624 163.885 443.728 166.429 444.544C169.021 445.408 171.637 445.84 174.277 445.84C178.501 445.84 181.597 444.88 183.565 442.96C185.533 441.04 186.517 438.112 186.517 434.176V432.16C184.981 433.84 183.109 435.112 180.901 435.976C178.693 436.84 176.269 437.272 173.629 437.272C169.981 437.272 166.669 436.504 163.693 434.968C160.765 433.384 158.437 431.176 156.709 428.344C155.029 425.512 154.189 422.272 154.189 418.624C154.189 414.976 155.029 411.76 156.709 408.976C158.437 406.144 160.765 403.96 163.693 402.424C166.669 400.888 169.981 400.12 173.629 400.12C176.413 400.12 178.933 400.576 181.189 401.488C183.493 402.4 185.413 403.792 186.949 405.664V400.552H195.517ZM174.997 429.64C178.405 429.64 181.189 428.632 183.349 426.616C185.557 424.552 186.661 421.888 186.661 418.624C186.661 415.408 185.557 412.792 183.349 410.776C181.189 408.76 178.405 407.752 174.997 407.752C171.541 407.752 168.709 408.76 166.501 410.776C164.341 412.792 163.261 415.408 163.261 418.624C163.261 421.888 164.341 424.552 166.501 426.616C168.709 428.632 171.541 429.64 174.997 429.64ZM207.349 400.552H216.349V439H207.349V400.552ZM211.885 394.216C210.253 394.216 208.885 393.712 207.781 392.704C206.677 391.648 206.125 390.352 206.125 388.816C206.125 387.28 206.677 386.008 207.781 385C208.885 383.944 210.253 383.416 211.885 383.416C213.517 383.416 214.885 383.92 215.989 384.928C217.093 385.888 217.645 387.112 217.645 388.6C217.645 390.184 217.093 391.528 215.989 392.632C214.933 393.688 213.565 394.216 211.885 394.216ZM240.042 439.504C236.922 439.504 233.874 439.096 230.898 438.28C227.922 437.464 225.546 436.432 223.77 435.184L227.226 428.344C228.954 429.496 231.018 430.432 233.418 431.152C235.866 431.824 238.266 432.16 240.618 432.16C245.994 432.16 248.682 430.744 248.682 427.912C248.682 426.568 247.986 425.632 246.594 425.104C245.25 424.576 243.066 424.072 240.042 423.592C236.874 423.112 234.282 422.56 232.266 421.936C230.298 421.312 228.57 420.232 227.082 418.696C225.642 417.112 224.922 414.928 224.922 412.144C224.922 408.496 226.434 405.592 229.458 403.432C232.53 401.224 236.658 400.12 241.842 400.12C244.482 400.12 247.122 400.432 249.762 401.056C252.402 401.632 254.562 402.424 256.242 403.432L252.786 410.272C249.522 408.352 245.85 407.392 241.77 407.392C239.13 407.392 237.114 407.8 235.722 408.616C234.378 409.384 233.706 410.416 233.706 411.712C233.706 413.152 234.426 414.184 235.866 414.808C237.354 415.384 239.634 415.936 242.706 416.464C245.778 416.944 248.298 417.496 250.266 418.12C252.234 418.744 253.914 419.8 255.306 421.288C256.746 422.776 257.466 424.888 257.466 427.624C257.466 431.224 255.906 434.104 252.786 436.264C249.666 438.424 245.418 439.504 240.042 439.504ZM288.329 436.912C287.273 437.776 285.977 438.424 284.441 438.856C282.953 439.288 281.369 439.504 279.689 439.504C275.465 439.504 272.201 438.4 269.896 436.192C267.593 433.984 266.441 430.768 266.441 426.544V408.04H260.105V400.84H266.441V392.056H275.441V400.84H285.737V408.04H275.441V426.328C275.441 428.2 275.897 429.64 276.809 430.648C277.721 431.608 279.041 432.088 280.769 432.088C282.785 432.088 284.465 431.56 285.809 430.504L288.329 436.912ZM330.611 419.992C330.611 420.616 330.563 421.504 330.467 422.656H300.299C300.827 425.488 302.195 427.744 304.403 429.424C306.659 431.056 309.443 431.872 312.755 431.872C316.979 431.872 320.459 430.48 323.195 427.696L328.019 433.24C326.291 435.304 324.107 436.864 321.467 437.92C318.827 438.976 315.851 439.504 312.539 439.504C308.315 439.504 304.595 438.664 301.379 436.984C298.163 435.304 295.667 432.976 293.891 430C292.163 426.976 291.299 423.568 291.299 419.776C291.299 416.032 292.139 412.672 293.819 409.696C295.547 406.672 297.923 404.32 300.947 402.64C303.971 400.96 307.379 400.12 311.171 400.12C314.915 400.12 318.251 400.96 321.179 402.64C324.155 404.272 326.459 406.6 328.091 409.624C329.771 412.6 330.611 416.056 330.611 419.992ZM311.171 407.32C308.291 407.32 305.843 408.184 303.827 409.912C301.859 411.592 300.659 413.848 300.227 416.68H322.043C321.659 413.896 320.483 411.64 318.515 409.912C316.547 408.184 314.099 407.32 311.171 407.32ZM347.824 406.168C350.416 402.136 354.976 400.12 361.504 400.12V408.688C360.736 408.544 360.04 408.472 359.416 408.472C355.912 408.472 353.176 409.504 351.208 411.568C349.24 413.584 348.256 416.512 348.256 420.352V439H339.256V400.552H347.824V406.168ZM75.528 480.344C71.736 480.344 69.84 482.408 69.84 486.536V488.84H80.424V496.04H70.128V527H61.128V496.04H54.792V488.84H61.128V486.392C61.128 482.264 62.328 479.024 64.728 476.672C67.128 474.272 70.512 473.072 74.88 473.072C78.336 473.072 81.048 473.768 83.016 475.16L80.496 481.928C78.96 480.872 77.304 480.344 75.528 480.344ZM103.2 527.504C99.3116 527.504 95.8076 526.664 92.6876 524.984C89.5676 523.304 87.1196 520.976 85.3436 518C83.6156 514.976 82.7516 511.568 82.7516 507.776C82.7516 503.984 83.6156 500.6 85.3436 497.624C87.1196 494.648 89.5676 492.32 92.6876 490.64C95.8076 488.96 99.3116 488.12 103.2 488.12C107.136 488.12 110.664 488.96 113.784 490.64C116.904 492.32 119.328 494.648 121.056 497.624C122.832 500.6 123.72 503.984 123.72 507.776C123.72 511.568 122.832 514.976 121.056 518C119.328 520.976 116.904 523.304 113.784 524.984C110.664 526.664 107.136 527.504 103.2 527.504ZM103.2 519.8C106.512 519.8 109.248 518.696 111.408 516.488C113.568 514.28 114.648 511.376 114.648 507.776C114.648 504.176 113.568 501.272 111.408 499.064C109.248 496.856 106.512 495.752 103.2 495.752C99.8876 495.752 97.1516 496.856 94.9916 499.064C92.8796 501.272 91.8236 504.176 91.8236 507.776C91.8236 511.376 92.8796 514.28 94.9916 516.488C97.1516 518.696 99.8876 519.8 103.2 519.8ZM140.894 494.168C143.486 490.136 148.046 488.12 154.574 488.12V496.688C153.806 496.544 153.11 496.472 152.486 496.472C148.982 496.472 146.246 497.504 144.278 499.568C142.31 501.584 141.326 504.512 141.326 508.352V527H132.326V488.552H140.894V494.168ZM205.571 524.912C204.515 525.776 203.219 526.424 201.683 526.856C200.195 527.288 198.611 527.504 196.931 527.504C192.707 527.504 189.443 526.4 187.139 524.192C184.835 521.984 183.683 518.768 183.683 514.544V496.04H177.347V488.84H183.683V480.056H192.683V488.84H202.979V496.04H192.683V514.328C192.683 516.2 193.139 517.64 194.051 518.648C194.963 519.608 196.283 520.088 198.011 520.088C200.027 520.088 201.707 519.56 203.051 518.504L205.571 524.912ZM234.79 488.12C239.638 488.12 243.526 489.536 246.454 492.368C249.382 495.2 250.846 499.4 250.846 504.968V527H241.846V506.12C241.846 502.76 241.054 500.24 239.47 498.56C237.886 496.832 235.63 495.968 232.702 495.968C229.39 495.968 226.774 496.976 224.854 498.992C222.934 500.96 221.974 503.816 221.974 507.56V527H212.974V473.576H221.974V493.016C223.462 491.432 225.286 490.232 227.446 489.416C229.654 488.552 232.102 488.12 234.79 488.12ZM298.759 507.992C298.759 508.616 298.711 509.504 298.615 510.656H268.447C268.975 513.488 270.343 515.744 272.551 517.424C274.807 519.056 277.591 519.872 280.903 519.872C285.127 519.872 288.607 518.48 291.343 515.696L296.167 521.24C294.439 523.304 292.255 524.864 289.615 525.92C286.975 526.976 283.999 527.504 280.687 527.504C276.463 527.504 272.743 526.664 269.527 524.984C266.311 523.304 263.815 520.976 262.039 518C260.311 514.976 259.447 511.568 259.447 507.776C259.447 504.032 260.287 500.672 261.967 497.696C263.695 494.672 266.071 492.32 269.095 490.64C272.119 488.96 275.527 488.12 279.319 488.12C283.063 488.12 286.399 488.96 289.327 490.64C292.303 492.272 294.607 494.6 296.239 497.624C297.919 500.6 298.759 504.056 298.759 507.992ZM279.319 495.32C276.439 495.32 273.991 496.184 271.975 497.912C270.007 499.592 268.807 501.848 268.375 504.68H290.191C289.807 501.896 288.631 499.64 286.663 497.912C284.695 496.184 282.247 495.32 279.319 495.32ZM96.048 595.992C96.048 596.616 96 597.504 95.904 598.656H65.736C66.264 601.488 67.632 603.744 69.84 605.424C72.096 607.056 74.88 607.872 78.192 607.872C82.416 607.872 85.896 606.48 88.632 603.696L93.456 609.24C91.728 611.304 89.544 612.864 86.904 613.92C84.264 614.976 81.288 615.504 77.976 615.504C73.752 615.504 70.032 614.664 66.816 612.984C63.6 611.304 61.104 608.976 59.328 606C57.6 602.976 56.736 599.568 56.736 595.776C56.736 592.032 57.576 588.672 59.256 585.696C60.984 582.672 63.36 580.32 66.384 578.64C69.408 576.96 72.816 576.12 76.608 576.12C80.352 576.12 83.688 576.96 86.616 578.64C89.592 580.272 91.896 582.6 93.528 585.624C95.208 588.6 96.048 592.056 96.048 595.992ZM76.608 583.32C73.728 583.32 71.28 584.184 69.264 585.912C67.296 587.592 66.096 589.848 65.664 592.68H87.48C87.096 589.896 85.92 587.64 83.952 585.912C81.984 584.184 79.536 583.32 76.608 583.32ZM139.99 576.552L123.502 615H114.214L97.7259 576.552H107.086L119.038 605.064L131.35 576.552H139.99ZM180.704 595.992C180.704 596.616 180.656 597.504 180.56 598.656H150.392C150.92 601.488 152.288 603.744 154.496 605.424C156.752 607.056 159.536 607.872 162.848 607.872C167.072 607.872 170.552 606.48 173.288 603.696L178.112 609.24C176.384 611.304 174.2 612.864 171.56 613.92C168.92 614.976 165.944 615.504 162.632 615.504C158.408 615.504 154.688 614.664 151.472 612.984C148.256 611.304 145.76 608.976 143.984 606C142.256 602.976 141.392 599.568 141.392 595.776C141.392 592.032 142.232 588.672 143.912 585.696C145.64 582.672 148.016 580.32 151.04 578.64C154.064 576.96 157.472 576.12 161.264 576.12C165.008 576.12 168.344 576.96 171.272 578.64C174.248 580.272 176.552 582.6 178.184 585.624C179.864 588.6 180.704 592.056 180.704 595.992ZM161.264 583.32C158.384 583.32 155.936 584.184 153.92 585.912C151.952 587.592 150.752 589.848 150.32 592.68H172.136C171.752 589.896 170.576 587.64 168.608 585.912C166.64 584.184 164.192 583.32 161.264 583.32ZM211.165 576.12C216.013 576.12 219.901 577.536 222.829 580.368C225.757 583.2 227.221 587.4 227.221 592.968V615H218.221V594.12C218.221 590.76 217.429 588.24 215.845 586.56C214.261 584.832 212.005 583.968 209.077 583.968C205.765 583.968 203.149 584.976 201.229 586.992C199.309 588.96 198.349 591.816 198.349 595.56V615H189.349V576.552H197.917V581.52C199.405 579.744 201.277 578.4 203.533 577.488C205.789 576.576 208.333 576.12 211.165 576.12ZM261.75 612.912C260.694 613.776 259.398 614.424 257.862 614.856C256.374 615.288 254.79 615.504 253.11 615.504C248.886 615.504 245.622 614.4 243.318 612.192C241.014 609.984 239.862 606.768 239.862 602.544V584.04H233.526V576.84H239.862V568.056H248.862V576.84H259.158V584.04H248.862V602.328C248.862 604.2 249.318 605.64 250.23 606.648C251.142 607.608 252.462 608.088 254.19 608.088C256.206 608.088 257.886 607.56 259.23 606.504L261.75 612.912Z" fill="white"/>
<rect x="16.224" y="812" width="142" height="143.844" transform="rotate(47.0133 16.224 812)" fill="#07325A"/>
<rect x="418.224" y="-44" width="142" height="143.844" transform="rotate(47.0133 418.224 -44)" fill="#07325A"/>
<rect x="147.657" y="225.662" width="110" height="110" transform="rotate(-50.6038 147.657 225.662)" fill="#07325A"/>
<rect x="356.378" y="670" width="173.584" height="175.838" transform="rotate(61.3966 356.378 670)" fill="#07325A"/>
<rect x="468.012" y="477.177" width="64.6536" height="69.8726" transform="rotate(129.216 468.012 477.177)" fill="#07325A"/>
</g>
<defs>
<clipPath id="clip0">
<rect width="555" height="991" fill="white"/>
</clipPath>
</defs>
</svg>
